<svg width="35" height="35" viewBox="0 0 35 35" fill="none" xmlns="http://www.w3.org/2000/svg">
<path d="M30.625 18.6521C30.3956 21.1345 29.464 23.5002 27.9391 25.4724C26.4143 27.4446 24.3593 28.9418 22.0146 29.7887C19.6699 30.6356 17.1325 30.7973 14.6993 30.2547C12.2661 29.7122 10.0377 28.4879 8.27492 26.7251C6.51213 24.9623 5.28784 22.7339 4.74529 20.3007C4.20274 17.8675 4.36439 15.3301 5.2113 12.9854C6.05822 10.6407 7.55539 8.58574 9.52761 7.06089C11.4998 5.53604 13.8655 4.6044 16.3479 4.375C14.8946 6.34122 14.1952 8.76378 14.377 11.2021C14.5589 13.6403 15.6098 15.9324 17.3387 17.6613C19.0676 19.3902 21.3597 20.4411 23.7979 20.623C26.2362 20.8048 28.6588 20.1054 30.625 18.6521Z" stroke="#111111" stroke-width="2" stroke-linecap="round" stroke-linejoin="round"/>
</svg>
